<svg xmlns="http://www.w3.org/2000/svg" viewBox="0 0 1400 672.51"><defs><style>.a{fill:#38beca;}.b{fill:#fede2e;}.c{fill:#fff;}</style></defs><title>10_Confiance</title><rect class="a" x="23.67" y="-3.67" width="652.51" height="679.84" transform="translate(686.17 -13.67) rotate(90)"/><rect x="891.79" y="164.46" width="316.25" height="679.84" transform="translate(1554.3 -545.54) rotate(90)"/><path class="b" d="M545.73,329.81a11,11,0,0,0-7.31-2.78q-3.75,4.59-11.72,4.59-5.91,0-9.36-3.56t-3.44-10.21q0-6.64,3.44-10.2t9.36-3.57q7.13,0,10.39,4.95a11.8,11.8,0,0,0,8-2.59,8.2,8.2,0,0,0,3-6.46q0-6.17-5.86-10.69t-16.73-4.53a33,33,0,0,0-22.83,8.45q-9.42,8.46-9.42,24.64,0,15.94,9.67,24.1a34.8,34.8,0,0,0,23.19,8.15q9.78,0,16.18-4t6.41-10A8.2,8.2,0,0,0,545.73,329.81Z"/><path class="b" d="M159.65,324.31a16,16,0,0,0-8.82-3.56q-5,8.46-16.07,8.46a16.68,16.68,0,0,1-12.92-5.44q-4.95-5.43-5-15.1t4.77-15.28q4.77-5.61,13.1-5.61,12.33,0,15.58,8.45a15.8,15.8,0,0,0,8.88-3.14,9.24,9.24,0,0,0,3.57-7.73q0-7.85-7.8-13.29t-20.83-5.43a44.83,44.83,0,0,0-15.46,2.59A39.31,39.31,0,0,0,106,276.84,34.44,34.44,0,0,0,97.08,290a49.86,49.86,0,0,0-3.26,18.66,47.77,47.77,0,0,0,3.38,18.6,33.4,33.4,0,0,0,9.18,13,40.29,40.29,0,0,0,13,7.37,47,47,0,0,0,15.4,2.47q12.45,0,20.54-5.13t8.09-12.74A9.81,9.81,0,0,0,159.65,324.31Z"/><path class="b" d="M269,285.12q-7.37,0-11.84,4a22.64,22.64,0,0,0-6.4,9.43v-2.9c0-3.47-.81-5.94-2.42-7.43s-4.26-2.24-8-2.24h-.24q-5.43,0-7.85,2.24c-1.61,1.49-2.42,4-2.42,7.43v43.84c0,3.47.77,5.92,2.3,7.37s4.19,2.18,8,2.18h.48c3.63,0,6.22-.75,7.79-2.24s2.36-3.92,2.36-7.31V318.7q0-6.4,2.48-10a7.62,7.62,0,0,1,6.58-3.62q7.84,0,7.85,9.06v25.24q0,9.66,9.78,9.67h1q5.55,0,7.91-2.24c1.57-1.49,2.36-4,2.36-7.43V308.91q0-12.2-5.62-18A18.75,18.75,0,0,0,269,285.12Z"/><path class="b" d="M322.37,279.85c5.1-9.17,16.51-7.05,19.26-1.87a7.35,7.35,0,0,0,2.48,4.6l.08.06c2.29,2.18,6.08,3.18,10.61,1.57l.08,0a8.75,8.75,0,0,0,2.81-1.59c1.76-1.49,2.64-3.68,2.64-6.59a10.45,10.45,0,0,0-.64-3.77c-3.3-12.47-32.59-27.28-52.46-5.39a25.66,25.66,0,0,0-6.77,17.81v5.43h-3.38q-7.6,0-7.61,9.06a8.42,8.42,0,0,0,2,6,7.36,7.36,0,0,0,5.62,2.11h3.5v32.37c0,3.47.75,5.92,2.24,7.37s4.13,2.18,7.91,2.18h.48q5.57,0,7.86-2.18c1.53-1.45,2.29-3.9,2.29-7.37V307.22h8.69q4.83,0,6.95-1.63c1.41-1.08,2.11-3.24,2.11-6.46s-.72-5.54-2.17-6.95-3.75-2.11-6.89-2.11H321v-1C321,286.13,321.34,281.72,322.37,279.85Z"/><path class="b" d="M216.65,292.85a32.93,32.93,0,0,0-21.32-7.73,32.39,32.39,0,0,0-11.24,2A36.3,36.3,0,0,0,174,292.85a26.1,26.1,0,0,0-7.55,10.27,36.27,36.27,0,0,0-2.84,14.61,35.46,35.46,0,0,0,2.84,14.5A25.7,25.7,0,0,0,174,342.31a34.75,34.75,0,0,0,10.14,5.56,34.22,34.22,0,0,0,32.56-5.56,26,26,0,0,0,7.48-10.08,38.72,38.72,0,0,0,0-29.11A27.6,27.6,0,0,0,216.65,292.85Zm-13.53,35.27a10.64,10.64,0,0,1-15.83-.06q-3-3.57-2.95-10.69t2.95-10.63a10.7,10.7,0,0,1,15.83,0q3,3.5,3,10.63T203.12,328.12Z"/><path class="b" d="M352,290.07h-.25q-5.43,0-7.79,2.24t-2.35,7.43v39.73c0,3.39.76,5.82,2.29,7.31s4.15,2.24,7.85,2.24h.49q5.43,0,7.79-2.24c1.57-1.49,2.35-3.92,2.35-7.31V299.74q0-5.19-2.41-7.43T352,290.07Z"/><path class="b" d="M423.26,326.79V312.05q0-12.8-6.52-19.81t-21.38-7q-11.36,0-18.06,3.8t-6.7,9.49q0,6.77,5.67,9.18,6-4.35,15.46-4.35,12.57,0,12.57,7.61v1.45a72.37,72.37,0,0,0-13.17-1.82q-10.26,0-17.21,5.26T367,330.41q0,9.06,6,14.14t14.92,5.07q6.76,0,11-2.9a15.94,15.94,0,0,0,5.8-6.4l.24.12q2.66,9.06,11.35,9.06,5.56,0,8.46-2.84a11.59,11.59,0,0,0,3.5-6.46Q423.26,338.15,423.26,326.79Zm-19-1.93a9.68,9.68,0,0,1-2.78,6.82,9.32,9.32,0,0,1-7.13,3,10,10,0,0,1-5.92-1.63,5.25,5.25,0,0,1-2.29-4.53,5.39,5.39,0,0,1,2.6-4.89,11.89,11.89,0,0,1,6.46-1.63,20.17,20.17,0,0,1,9.06,1.81Z"/><path class="b" d="M470.14,285.12q-7.36,0-11.84,4a22.64,22.64,0,0,0-6.4,9.43v-2.9c0-3.47-.8-5.94-2.41-7.43s-4.27-2.24-8-2.24h-.24q-5.43,0-7.85,2.24c-1.61,1.49-2.42,4-2.42,7.43v43.84c0,3.47.77,5.92,2.3,7.37s4.19,2.18,8,2.18h.49q5.43,0,7.79-2.24c1.57-1.49,2.35-3.92,2.35-7.31V318.7q0-6.4,2.48-10a7.62,7.62,0,0,1,6.58-3.62q7.85,0,7.85,9.06v25.24q0,9.66,9.79,9.67h1c3.71,0,6.34-.75,7.91-2.24s2.36-4,2.36-7.43V308.91q0-12.2-5.62-18A18.75,18.75,0,0,0,470.14,285.12Z"/><path class="b" d="M599.38,328q-5.19,5-14.49,4.95a22.91,22.91,0,0,1-12-2.9q-4.83-2.9-4.83-7.85Q574,325,583.68,325t16-4.65q6.35-4.65,6.34-13.71a19.77,19.77,0,0,0-6.76-15.22q-6.76-6.16-18.48-6.16-13.89,0-22.77,8.7t-8.88,24.4q0,15.57,8.94,23.61t23.8,8a40.19,40.19,0,0,0,10.57-1.39,22.18,22.18,0,0,0,8.81-4.53,9.42,9.42,0,0,0,3.69-7.37,9.73,9.73,0,0,0-1.63-5.31A8,8,0,0,0,599.38,328Zm-26.45-23.8a10.12,10.12,0,0,1,6.88-2.65,11.24,11.24,0,0,1,6.59,1.81,5.31,5.31,0,0,1,2.59,4.47q0,5.91-7.49,5.92-8.68,0-12-2.42A10.19,10.19,0,0,1,572.93,304.2Z"/><path class="c" d="M144.11,373.3h.43q3,0,3,2.55v1.94a9.73,9.73,0,0,1,3.62-3.52,10.41,10.41,0,0,1,5.43-1.45,11.81,11.81,0,0,1,9.19,3.85q3.49,3.85,3.49,11.75,0,7.69-3.82,11.65a12.88,12.88,0,0,1-9.65,3.94,13.9,13.9,0,0,1-8.26-2.42v12.32a3,3,0,0,1-.72,2.27,3.34,3.34,0,0,1-2.37.7h-.37q-3.09,0-3.09-3V376.28a3,3,0,0,1,.73-2.28A3.34,3.34,0,0,1,144.11,373.3Zm3.53,16.75q0,3.46.18,6.74A7,7,0,0,0,150.4,398a13.83,13.83,0,0,0,4.22.64,7.39,7.39,0,0,0,5.79-2.49q2.22-2.47,2.22-7.7t-2.16-7.59a7.22,7.22,0,0,0-5.61-2.37,5.8,5.8,0,0,0-5.53,3.22A17.91,17.91,0,0,0,147.64,390.05Z"/><path class="c" d="M199,375.7a9.24,9.24,0,0,1,3.22,7.19,7.48,7.48,0,0,1-3.22,6.56,14.37,14.37,0,0,1-8.37,2.24,23.75,23.75,0,0,1-9-1.45,7.76,7.76,0,0,0,2.89,6.28,10.48,10.48,0,0,0,7,2.39c4.28,0,7.1-1.23,8.43-3.7a2.74,2.74,0,0,1,2.31,2.86c0,1.57-1,3-3.1,4.24a15.17,15.17,0,0,1-8,1.89A16.27,16.27,0,0,1,180,400.28q-4.42-3.91-4.43-11.62t4.34-11.75a14.65,14.65,0,0,1,10.41-4.09C194,372.82,196.9,373.78,199,375.7Zm-17.17,10.47a23,23,0,0,0,7.58,1.21c4.78,0,7.16-1.49,7.16-4.49a4.17,4.17,0,0,0-1.88-3.46,7.82,7.82,0,0,0-4.79-1.39,7.49,7.49,0,0,0-5.68,2.42A8.61,8.61,0,0,0,181.87,386.17Z"/><path class="c" d="M215.67,365.72h.48q3,0,3,3v5.22h7.16c2.07,0,3.1.91,3.1,2.73s-1.08,2.67-3.22,2.67h-7v13.35c0,2.27.43,3.88,1.31,4.83a5,5,0,0,0,3.91,1.42,6,6,0,0,0,4.13-1.21,2.85,2.85,0,0,1,1.45,2.73c0,1.09-.7,2-2.09,2.67a11.84,11.84,0,0,1-5.25,1,10.06,10.06,0,0,1-7.31-2.61c-1.8-1.73-2.7-4.51-2.7-8.31v-13.9H210c-2,0-3-.89-3-2.67s1-2.73,3-2.73h2.55v-5.1Q212.64,365.72,215.67,365.72Z"/><path class="c" d="M256.58,377.67c0,1.26-.83,2.21-2.49,2.86a5.44,5.44,0,0,0-2.55-1.71,12,12,0,0,0-4.31-.72,8.41,8.41,0,0,0-4.13.88,2.76,2.76,0,0,0-1.58,2.52,2.87,2.87,0,0,0,1.34,2.49,18.67,18.67,0,0,0,5.28,1.88q5.4,1.28,7.8,3.39a7.18,7.18,0,0,1,2.4,5.65,7.75,7.75,0,0,1-3.68,6.7,15.78,15.78,0,0,1-9.19,2.52,20.77,20.77,0,0,1-8.22-1.36c-2.09-.91-3.13-2.16-3.13-3.73a3.93,3.93,0,0,1,2.06-3.59,8.17,8.17,0,0,0,3.53,2.55,15,15,0,0,0,6.06,1.1A8,8,0,0,0,250.2,398a3.15,3.15,0,0,0,1.58-2.71,3,3,0,0,0-1.61-2.67,24.83,24.83,0,0,0-6-2.06q-5-1.22-7.14-3.19a6.64,6.64,0,0,1-2.15-5.13,8.07,8.07,0,0,1,3.61-7,14.31,14.31,0,0,1,8.47-2.55,15.27,15.27,0,0,1,7.07,1.36C255.72,375,256.58,376.22,256.58,377.67Z"/><path class="c" d="M273.45,364.69a3.66,3.66,0,0,1-1.16,2.82,4.05,4.05,0,0,1-2.85,1.06,4,4,0,0,1-2.82-1.06,3.7,3.7,0,0,1-1.12-2.82,3.83,3.83,0,0,1,3.94-3.95,3.89,3.89,0,0,1,2.85,1.12A3.78,3.78,0,0,1,273.45,364.69Zm-4.13,8.61h.3q3.11,0,3.1,3v24.39A3.12,3.12,0,0,1,272,403a3.22,3.22,0,0,1-2.37.73h-.3a2.6,2.6,0,0,1-3.09-3V376.28Q266.23,373.3,269.32,373.3Z"/><path class="c" d="M288.56,365.72H289q3,0,3,3v5.22h7.16c2.07,0,3.1.91,3.1,2.73s-1.08,2.67-3.22,2.67h-7v13.35c0,2.27.43,3.88,1.31,4.83a5,5,0,0,0,3.91,1.42,6,6,0,0,0,4.13-1.21,2.85,2.85,0,0,1,1.45,2.73c0,1.09-.7,2-2.09,2.67a11.84,11.84,0,0,1-5.25,1,10.06,10.06,0,0,1-7.31-2.61c-1.8-1.73-2.7-4.51-2.7-8.31v-13.9h-2.61c-2,0-3-.89-3-2.67s1-2.73,3-2.73h2.55v-5.1Q285.53,365.72,288.56,365.72Z"/><path class="c" d="M314.66,365.72h.48c2,0,3,1,3,3v5.22h7.16q3.09,0,3.09,2.73t-3.21,2.67h-7v13.35q0,3.4,1.3,4.83a5.06,5.06,0,0,0,3.92,1.42,6,6,0,0,0,4.12-1.21,2.85,2.85,0,0,1,1.46,2.73c0,1.09-.7,2-2.09,2.67a11.84,11.84,0,0,1-5.25,1,10.09,10.09,0,0,1-7.32-2.61c-1.8-1.73-2.7-4.51-2.7-8.31v-13.9H309q-3,0-3-2.67t3-2.73h2.55v-5.1Q311.62,365.72,314.66,365.72Z"/><path class="c" d="M342.94,364.69a3.65,3.65,0,0,1-1.15,2.82,4.1,4.1,0,0,1-2.86,1.06,4,4,0,0,1-2.82-1.06,3.7,3.7,0,0,1-1.12-2.82,3.83,3.83,0,0,1,3.94-3.95,3.93,3.93,0,0,1,2.86,1.12A3.78,3.78,0,0,1,342.94,364.69Zm-4.13,8.61h.31q3.09,0,3.09,3v24.39a3.12,3.12,0,0,1-.73,2.31,3.21,3.21,0,0,1-2.36.73h-.31a2.61,2.61,0,0,1-3.09-3V376.28Q335.72,373.3,338.81,373.3Z"/><path class="c" d="M355.2,373.3h.36a3.36,3.36,0,0,1,2.37.7,3.14,3.14,0,0,1,.73,2.34v2.55a11.52,11.52,0,0,1,3.55-4.25,9.27,9.27,0,0,1,5.8-1.82,10.77,10.77,0,0,1,7.73,2.91q3.08,2.91,3.07,9.23v15.71a3.11,3.11,0,0,1-.73,2.34,3.44,3.44,0,0,1-2.43.7h-.48q-3,0-3-3v-14.8c0-2.59-.54-4.43-1.64-5.53a6.33,6.33,0,0,0-4.67-1.64,6.21,6.21,0,0,0-5.22,2.61,11.38,11.38,0,0,0-1.94,6.92v12.44A3.11,3.11,0,0,1,358,403a3.41,3.41,0,0,1-2.43.7h-.36a3.33,3.33,0,0,1-2.4-.7,3.24,3.24,0,0,1-.7-2.34V376.34a3.18,3.18,0,0,1,.73-2.34A3.39,3.39,0,0,1,355.2,373.3Z"/><path class="c" d="M414.07,374.15a3.72,3.72,0,0,1-1.34,2.89,8.4,8.4,0,0,1-3,1.73,8.37,8.37,0,0,1,1.4,5.27c0,3.53-1.19,6.19-3.55,8a14.07,14.07,0,0,1-8.77,2.7c-.21,0-.6,0-1.19-.06s-1-.06-1.24-.06a3.63,3.63,0,0,0-2.16.63,1.81,1.81,0,0,0-.88,1.43c0,1.3,1.1,1.94,3.28,1.94h4.68q12.8,0,12.86,8A8.49,8.49,0,0,1,410,414q-4.12,2.79-10.74,2.91h-1.52a18.61,18.61,0,0,1-9-2q-3.7-2-3.7-5a3.68,3.68,0,0,1,1.09-2.76,4.33,4.33,0,0,1,3-1.12,6.79,6.79,0,0,0,1.63,2.48q2.49,3.1,8,3.1h.54a14.72,14.72,0,0,0,6.44-1.18c1.57-.79,2.36-1.78,2.36-2.95a2.75,2.75,0,0,0-2-2.67,17.45,17.45,0,0,0-6-.79q-7-.12-10.07-1.18a4.16,4.16,0,0,1-3-4.28q0-3.53,4.73-5.28c-3.55-1.94-5.34-5.08-5.34-9.41a9.74,9.74,0,0,1,3.65-8.1,14,14,0,0,1,9-2.88,11.24,11.24,0,0,1,8,3.09c1.46-1.09,2.22-3,2.31-5.64a5.44,5.44,0,0,1,3.43,1.06A3.4,3.4,0,0,1,414.07,374.15Zm-21.67,9.77a5.85,5.85,0,0,0,1.82,4.71,6.83,6.83,0,0,0,4.56,1.55,6.69,6.69,0,0,0,4.52-1.55,5.9,5.9,0,0,0,1.79-4.71,6,6,0,0,0-1.79-4.76,6.69,6.69,0,0,0-4.52-1.55,6.83,6.83,0,0,0-4.56,1.55A5.92,5.92,0,0,0,392.4,383.92Z"/><path class="c" d="M473.37,402.44c0,.85-.71,1.27-2.13,1.27h-1.39a2.41,2.41,0,0,1-.64-.09l-.61-.15a1.93,1.93,0,0,1-.64-.31l-.57-.36a4,4,0,0,1-.67-.52c-.3-.26-.51-.44-.61-.54l-.63-.65a3,3,0,0,0-.73-.6q-4.06,4-11.6,4-7.09,0-11.16-3.34a10.21,10.21,0,0,1-4.07-8.19q0-7.29,8.38-11.41a25.39,25.39,0,0,1-3.92-4.65,8.8,8.8,0,0,1-1.24-4.7,9.67,9.67,0,0,1,3-7.16,10.91,10.91,0,0,1,7.95-3,11.16,11.16,0,0,1,8.14,3,9.77,9.77,0,0,1,3.09,7.22q0,6.63-8.56,10.28l9.79,10a11,11,0,0,0,1.14-5.3,19.9,19.9,0,0,0-.49-3.73q4.86,1.78,4.86,6.25a12.92,12.92,0,0,1-1.79,6.61l1.93,2,1.63,1.67.89.92A2,2,0,0,1,473.37,402.44ZM461,396.53,449.78,385.1q-5.49,2.63-5.49,7.55a6.11,6.11,0,0,0,2.34,4.71,9.31,9.31,0,0,0,6.34,2C456.5,399.4,459.17,398.44,461,396.53Zm-9.51-17.31a17.57,17.57,0,0,0,4.54-3,5.09,5.09,0,0,0,0-7.24,5.29,5.29,0,0,0-3.89-1.49,4.75,4.75,0,0,0-3.58,1.37,4.86,4.86,0,0,0-1.33,3.56,6,6,0,0,0,1,3.19A17.68,17.68,0,0,0,451.49,379.22Z"/><path class="c" d="M522,378.58a2.89,2.89,0,0,1-.94,2.25,4.16,4.16,0,0,1-2.52,1q-1.69-3.29-6.68-3.28a8.59,8.59,0,0,0-6.37,2.58q-2.55,2.58-2.55,7.5t2.52,7.4a8.55,8.55,0,0,0,6.34,2.55c3.73,0,6.25-1.09,7.59-3.28a3.38,3.38,0,0,1,2.25.94,2.73,2.73,0,0,1,.91,2c0,1.62-1,3-3,4.24a15,15,0,0,1-7.95,1.83,17.74,17.74,0,0,1-7.37-1.52,13.06,13.06,0,0,1-5.68-5.19,16.57,16.57,0,0,1-2.3-8.95,18.63,18.63,0,0,1,1.33-7.29,12.49,12.49,0,0,1,3.58-5,15.37,15.37,0,0,1,4.86-2.7,17.07,17.07,0,0,1,5.52-.88c3.32,0,5.89.58,7.71,1.76S522,377.05,522,378.58Z"/><path class="c" d="M554.36,376.91q4.46,4.09,4.46,11.63t-4.43,11.59a16.18,16.18,0,0,1-21.46,0q-4.45-4.06-4.46-11.59t4.46-11.63a16.08,16.08,0,0,1,21.43,0Zm-19.21,11.57q0,4.9,2.37,7.52a8.5,8.5,0,0,0,12.26,0q2.36-2.61,2.36-7.52T549.81,381a8.57,8.57,0,0,0-12.32,0Q535.15,383.62,535.15,388.48Z"/><path d="M1245.73,161.68a11,11,0,0,0-7.31-2.77q-3.75,4.59-11.72,4.59-5.91,0-9.36-3.57c-2.29-2.37-3.44-5.78-3.44-10.2s1.15-7.84,3.44-10.21,5.42-3.56,9.36-3.56q7.13,0,10.39,4.95a11.8,11.8,0,0,0,8-2.6,8.18,8.18,0,0,0,3-6.46q0-6.16-5.86-10.69t-16.73-4.53a33,33,0,0,0-22.83,8.45q-9.42,8.46-9.42,24.65,0,15.93,9.67,24.09A34.75,34.75,0,0,0,1226.1,182q9.78,0,16.18-4t6.41-10A8.21,8.21,0,0,0,1245.73,161.68Z"/><path d="M859.65,156.19a16,16,0,0,0-8.82-3.57q-5,8.46-16.07,8.46a16.64,16.64,0,0,1-12.92-5.44q-5-5.43-5-15.09t4.77-15.28q4.77-5.62,13.1-5.62,12.33,0,15.58,8.45a15.73,15.73,0,0,0,8.88-3.14,9.24,9.24,0,0,0,3.57-7.73q0-7.85-7.8-13.28t-20.83-5.44a44.83,44.83,0,0,0-15.46,2.6A39.14,39.14,0,0,0,806,108.72a34.4,34.4,0,0,0-8.87,13.16,49.87,49.87,0,0,0-3.26,18.67,47.84,47.84,0,0,0,3.38,18.6,33.44,33.44,0,0,0,9.18,13,40.29,40.29,0,0,0,13,7.37,47,47,0,0,0,15.4,2.48q12.45,0,20.54-5.14t8.09-12.74A9.79,9.79,0,0,0,859.65,156.19Z"/><path d="M969,117q-7.37,0-11.84,4a22.68,22.68,0,0,0-6.4,9.42v-2.9q0-5.19-2.42-7.43c-1.61-1.49-4.26-2.23-8-2.23h-.24q-5.43,0-7.85,2.23t-2.42,7.43v43.85c0,3.46.77,5.92,2.3,7.36s4.19,2.18,8,2.18h.48c3.63,0,6.22-.75,7.79-2.24s2.36-3.92,2.36-7.3V150.57q0-6.4,2.48-10a7.61,7.61,0,0,1,6.58-3.63q7.85,0,7.85,9.06v25.25q0,9.66,9.78,9.66h1q5.55,0,7.91-2.24t2.36-7.42V140.79q0-12.21-5.62-18A18.75,18.75,0,0,0,969,117Z"/><path d="M1022.37,111.72c5.1-9.17,16.51-7,19.26-1.86a7.33,7.33,0,0,0,2.48,4.59l.08.07c2.29,2.17,6.08,3.18,10.61,1.57l.08,0a8.78,8.78,0,0,0,2.81-1.6c1.76-1.48,2.64-3.68,2.64-6.58a10.41,10.41,0,0,0-.64-3.77c-3.3-12.48-32.59-27.29-52.46-5.4a25.66,25.66,0,0,0-6.77,17.81v5.43h-3.38q-7.61,0-7.61,9.06a8.42,8.42,0,0,0,2,6,7.36,7.36,0,0,0,5.62,2.12h3.5v32.37q0,5.19,2.24,7.37c1.49,1.44,4.13,2.17,7.91,2.17h.48c3.71,0,6.33-.73,7.86-2.17s2.29-3.91,2.29-7.37V139.1h8.69c3.22,0,5.54-.55,7-1.63s2.11-3.25,2.11-6.47-.72-5.53-2.17-6.94-3.75-2.12-6.89-2.12h-9v-1C1021,118,1021.34,113.59,1022.37,111.72Z"/><path d="M916.65,124.72A32.93,32.93,0,0,0,895.33,117a32.62,32.62,0,0,0-11.24,2A36.55,36.55,0,0,0,874,124.72,26.1,26.1,0,0,0,866.4,135a36.3,36.3,0,0,0-2.84,14.61,35.46,35.46,0,0,0,2.84,14.5A25.73,25.73,0,0,0,874,174.19a35,35,0,0,0,10.14,5.55,34.27,34.27,0,0,0,32.56-5.55,26,26,0,0,0,7.48-10.09,38.72,38.72,0,0,0,0-29.11A27.6,27.6,0,0,0,916.65,124.72ZM903.12,160a10.62,10.62,0,0,1-15.83-.06q-3-3.56-2.95-10.69t2.95-10.63a10.7,10.7,0,0,1,15.83,0q3,3.51,3,10.63T903.12,160Z"/><path d="M1052,122h-.25q-5.43,0-7.79,2.23t-2.35,7.43v39.74q0,5.07,2.29,7.3t7.85,2.24h.49q5.43,0,7.79-2.24t2.35-7.3V131.61q0-5.19-2.41-7.43T1052,122Z"/><path d="M1123.26,158.66V143.93q0-12.81-6.52-19.81t-21.38-7q-11.35,0-18.06,3.81t-6.7,9.48q0,6.76,5.67,9.18,6-4.35,15.46-4.35,12.57,0,12.57,7.61v1.45a72.15,72.15,0,0,0-13.17-1.81q-10.26,0-17.21,5.25t-7,14.56q0,9.06,6,14.13t14.92,5.07q6.77,0,11-2.9a15.88,15.88,0,0,0,5.8-6.4l.24.12q2.65,9.06,11.35,9.06c3.71,0,6.53-.94,8.46-2.84a11.55,11.55,0,0,0,3.5-6.46Q1123.26,170,1123.26,158.66Zm-19-1.93a9.71,9.71,0,0,1-2.78,6.83,9.35,9.35,0,0,1-7.13,3,10,10,0,0,1-5.92-1.64,5.23,5.23,0,0,1-2.29-4.53,5.39,5.39,0,0,1,2.6-4.89,12,12,0,0,1,6.46-1.63,20.3,20.3,0,0,1,9.06,1.81Z"/><path d="M1170.14,117q-7.37,0-11.84,4a22.68,22.68,0,0,0-6.4,9.42v-2.9q0-5.19-2.41-7.43c-1.62-1.49-4.27-2.23-8-2.23h-.24q-5.43,0-7.85,2.23T1131,127.5v43.85c0,3.46.77,5.92,2.3,7.36s4.19,2.18,8,2.18h.49q5.43,0,7.79-2.24t2.35-7.3V150.57q0-6.4,2.48-10a7.61,7.61,0,0,1,6.58-3.63q7.85,0,7.85,9.06v25.25q0,9.66,9.79,9.66h1c3.71,0,6.34-.75,7.91-2.24s2.36-4,2.36-7.42V140.79q0-12.21-5.62-18A18.75,18.75,0,0,0,1170.14,117Z"/><path d="M1299.38,159.87q-5.19,4.95-14.49,4.95a22.91,22.91,0,0,1-12-2.89c-3.22-1.94-4.83-4.55-4.83-7.86q5.91,2.79,15.58,2.78t16-4.65q6.35-4.65,6.34-13.71a19.77,19.77,0,0,0-6.76-15.22q-6.77-6.15-18.48-6.16-13.89,0-22.77,8.7t-8.88,24.4q0,15.58,8.94,23.61t23.8,8a40.61,40.61,0,0,0,10.57-1.39,22.44,22.44,0,0,0,8.81-4.53,9.44,9.44,0,0,0,3.69-7.37,9.78,9.78,0,0,0-1.63-5.32A8.07,8.07,0,0,0,1299.38,159.87Zm-26.45-23.79a10.13,10.13,0,0,1,6.88-2.66,11.24,11.24,0,0,1,6.59,1.81,5.32,5.32,0,0,1,2.59,4.47q0,5.93-7.49,5.92-8.68,0-12-2.42A10.16,10.16,0,0,1,1272.93,136.08Z"/><path d="M844.11,205.18h.43c2,0,3,.85,3,2.54v1.95a9.58,9.58,0,0,1,3.62-3.52,10.42,10.42,0,0,1,5.43-1.46,11.84,11.84,0,0,1,9.19,3.85q3.5,3.86,3.49,11.75,0,7.71-3.82,11.65a12.88,12.88,0,0,1-9.65,3.95,13.84,13.84,0,0,1-8.26-2.43v12.32a3.09,3.09,0,0,1-.72,2.28,3.39,3.39,0,0,1-2.37.69h-.37q-3.09,0-3.09-3V208.15a3,3,0,0,1,.73-2.28A3.34,3.34,0,0,1,844.11,205.18Zm3.53,16.75c0,2.3.06,4.55.18,6.73a7,7,0,0,0,2.58,1.19,14.15,14.15,0,0,0,4.22.64,7.39,7.39,0,0,0,5.79-2.49q2.22-2.49,2.22-7.71t-2.16-7.59a7.22,7.22,0,0,0-5.61-2.36,5.8,5.8,0,0,0-5.53,3.21A18,18,0,0,0,847.64,221.93Z"/><path d="M899,207.57a9.26,9.26,0,0,1,3.22,7.2,7.48,7.48,0,0,1-3.22,6.55,14.3,14.3,0,0,1-8.37,2.25,23.73,23.73,0,0,1-9-1.46,7.76,7.76,0,0,0,2.89,6.28,10.49,10.49,0,0,0,6.95,2.4c4.28,0,7.1-1.23,8.43-3.7a2.73,2.73,0,0,1,2.31,2.85c0,1.58-1,3-3.1,4.25a15.27,15.27,0,0,1-8,1.88A16.27,16.27,0,0,1,880,232.15q-4.43-3.92-4.43-11.62t4.34-11.74a14.66,14.66,0,0,1,10.41-4.1C894,204.69,896.9,205.65,899,207.57ZM881.87,218a23,23,0,0,0,7.58,1.22c4.78,0,7.16-1.5,7.16-4.49a4.15,4.15,0,0,0-1.88-3.46,7.82,7.82,0,0,0-4.79-1.4,7.46,7.46,0,0,0-5.68,2.43A8.58,8.58,0,0,0,881.87,218Z"/><path d="M915.67,197.59h.48q3,0,3,3v5.22h7.16c2.07,0,3.1.91,3.1,2.73s-1.08,2.68-3.22,2.68h-7v13.35c0,2.26.43,3.87,1.31,4.82a5,5,0,0,0,3.91,1.43,6,6,0,0,0,4.13-1.22,2.85,2.85,0,0,1,1.45,2.74c0,1.09-.7,2-2.09,2.67a12,12,0,0,1-5.25,1,10.06,10.06,0,0,1-7.31-2.61q-2.7-2.61-2.7-8.32V211.19H910c-2,0-3-.9-3-2.68s1-2.73,3-2.73h2.55v-5.09Q912.64,197.59,915.67,197.59Z"/><path d="M956.58,209.55q0,1.88-2.49,2.85a5.43,5.43,0,0,0-2.55-1.7,11.76,11.76,0,0,0-4.31-.73,8.52,8.52,0,0,0-4.13.88,2.77,2.77,0,0,0-1.58,2.52,2.87,2.87,0,0,0,1.34,2.49,18.67,18.67,0,0,0,5.28,1.88q5.4,1.27,7.8,3.4a7.17,7.17,0,0,1,2.4,5.64,7.78,7.78,0,0,1-3.68,6.71,15.85,15.85,0,0,1-9.19,2.52,20.76,20.76,0,0,1-8.22-1.37q-3.13-1.37-3.13-3.73a3.91,3.91,0,0,1,2.06-3.58,8.33,8.33,0,0,0,3.53,2.55,15,15,0,0,0,6.06,1.09,7.86,7.86,0,0,0,4.43-1.06,3.15,3.15,0,0,0,1.58-2.7,3,3,0,0,0-1.61-2.67,24.31,24.31,0,0,0-6-2.07q-5-1.22-7.14-3.18a6.67,6.67,0,0,1-2.15-5.13,8.09,8.09,0,0,1,3.61-7,14.31,14.31,0,0,1,8.47-2.55A15.4,15.4,0,0,1,954,206C955.72,206.91,956.58,208.09,956.58,209.55Z"/><path d="M973.45,196.56a3.66,3.66,0,0,1-1.16,2.82,4,4,0,0,1-2.85,1.06,3.94,3.94,0,0,1-2.82-1.06,3.7,3.7,0,0,1-1.12-2.82,3.85,3.85,0,0,1,3.94-3.95,3.9,3.9,0,0,1,2.85,1.13A3.76,3.76,0,0,1,973.45,196.56Zm-4.13,8.62h.3q3.11,0,3.1,3v24.4a3.11,3.11,0,0,1-.73,2.3,3.22,3.22,0,0,1-2.37.73h-.3a2.6,2.6,0,0,1-3.09-3v-24.4Q966.23,205.18,969.32,205.18Z"/><path d="M988.56,197.59H989q3,0,3,3v5.22h7.16c2.07,0,3.1.91,3.1,2.73s-1.08,2.68-3.22,2.68h-7v13.35c0,2.26.43,3.87,1.31,4.82a5,5,0,0,0,3.91,1.43,6,6,0,0,0,4.13-1.22,2.85,2.85,0,0,1,1.45,2.74c0,1.09-.7,2-2.09,2.67a12,12,0,0,1-5.25,1,10.06,10.06,0,0,1-7.31-2.61q-2.7-2.61-2.7-8.32V211.19h-2.61c-2,0-3-.9-3-2.68s1-2.73,3-2.73h2.55v-5.09Q985.53,197.59,988.56,197.59Z"/><path d="M1014.66,197.59h.48c2,0,3,1,3,3v5.22h7.16q3.09,0,3.09,2.73c0,1.78-1.07,2.68-3.21,2.68h-7v13.35q0,3.39,1.3,4.82a5.06,5.06,0,0,0,3.92,1.43,6,6,0,0,0,4.12-1.22,2.86,2.86,0,0,1,1.46,2.74c0,1.09-.7,2-2.09,2.67a12,12,0,0,1-5.25,1,10.09,10.09,0,0,1-7.32-2.61q-2.7-2.61-2.7-8.32V211.19H1009c-2,0-3-.9-3-2.68s1-2.73,3-2.73h2.55v-5.09Q1011.62,197.59,1014.66,197.59Z"/><path d="M1042.94,196.56a3.65,3.65,0,0,1-1.15,2.82,4.05,4.05,0,0,1-2.86,1.06,3.94,3.94,0,0,1-2.82-1.06,3.7,3.7,0,0,1-1.12-2.82,3.85,3.85,0,0,1,3.94-3.95,3.94,3.94,0,0,1,2.86,1.13A3.75,3.75,0,0,1,1042.94,196.56Zm-4.13,8.62h.31q3.09,0,3.09,3v24.4a3.11,3.11,0,0,1-.73,2.3,3.21,3.21,0,0,1-2.36.73h-.31a2.61,2.61,0,0,1-3.09-3v-24.4Q1035.72,205.18,1038.81,205.18Z"/><path d="M1055.2,205.18h.36a3.36,3.36,0,0,1,2.37.69,3.14,3.14,0,0,1,.73,2.34v2.55a11.52,11.52,0,0,1,3.55-4.25,9.33,9.33,0,0,1,5.8-1.82,10.77,10.77,0,0,1,7.73,2.91q3.08,2.93,3.07,9.23v15.72a3.14,3.14,0,0,1-.73,2.34,3.49,3.49,0,0,1-2.43.69h-.48q-3,0-3-3V217.74c0-2.59-.54-4.43-1.64-5.52a6.29,6.29,0,0,0-4.67-1.64,6.19,6.19,0,0,0-5.22,2.61,11.33,11.33,0,0,0-1.94,6.92v12.44a3.14,3.14,0,0,1-.73,2.34,3.46,3.46,0,0,1-2.43.69h-.36a3.37,3.37,0,0,1-2.4-.69,3.27,3.27,0,0,1-.7-2.34V208.21a3.18,3.18,0,0,1,.73-2.34A3.39,3.39,0,0,1,1055.2,205.18Z"/><path d="M1114.07,206a3.72,3.72,0,0,1-1.34,2.88,8.4,8.4,0,0,1-3,1.73,8.38,8.38,0,0,1,1.4,5.28c0,3.52-1.19,6.18-3.55,8a14.07,14.07,0,0,1-8.77,2.7c-.21,0-.6,0-1.19-.06s-1-.06-1.24-.06a3.57,3.57,0,0,0-2.16.64,1.79,1.79,0,0,0-.88,1.42c0,1.3,1.1,2,3.28,2h4.68q12.8,0,12.86,8a8.49,8.49,0,0,1-4.13,7.34q-4.12,2.79-10.74,2.91h-1.52a18.61,18.61,0,0,1-9-2c-2.47-1.36-3.7-3-3.7-5a3.68,3.68,0,0,1,1.09-2.76,4.37,4.37,0,0,1,3-1.12,6.91,6.91,0,0,0,1.63,2.49q2.49,3.09,8,3.09h.54a14.58,14.58,0,0,0,6.44-1.18c1.57-.79,2.36-1.77,2.36-2.94a2.73,2.73,0,0,0-2-2.67,17.21,17.21,0,0,0-6-.79c-4.69-.09-8-.48-10.07-1.19a4.16,4.16,0,0,1-3-4.28q0-3.51,4.73-5.28c-3.55-1.94-5.34-5.07-5.34-9.4a9.77,9.77,0,0,1,3.65-8.11,14,14,0,0,1,9-2.88,11.21,11.21,0,0,1,8,3.1c1.46-1.1,2.22-3,2.31-5.65a5.5,5.5,0,0,1,3.43,1.06A3.4,3.4,0,0,1,1114.07,206Zm-21.67,9.77a5.84,5.84,0,0,0,1.82,4.7,6.83,6.83,0,0,0,4.56,1.55,6.69,6.69,0,0,0,4.52-1.55,5.89,5.89,0,0,0,1.79-4.7,6,6,0,0,0-1.79-4.77,6.69,6.69,0,0,0-4.52-1.55,6.83,6.83,0,0,0-4.56,1.55A5.92,5.92,0,0,0,1092.4,215.8Z"/><path d="M1173.37,234.31c0,.85-.71,1.27-2.13,1.27h-1.39a2.41,2.41,0,0,1-.64-.09l-.61-.15a2.09,2.09,0,0,1-.64-.3c-.24-.16-.43-.29-.57-.37a4.34,4.34,0,0,1-.67-.51c-.3-.26-.51-.45-.61-.55l-.63-.65a2.7,2.7,0,0,0-.73-.59q-4.07,4-11.6,4-7.1,0-11.16-3.34a10.21,10.21,0,0,1-4.07-8.19q0-7.28,8.38-11.41a25.71,25.71,0,0,1-3.92-4.64,8.86,8.86,0,0,1-1.24-4.71,9.67,9.67,0,0,1,3-7.16,10.9,10.9,0,0,1,7.95-3,11.15,11.15,0,0,1,8.14,3,9.79,9.79,0,0,1,3.09,7.23q0,6.63-8.56,10.28l9.79,10a11.06,11.06,0,0,0,1.14-5.3,19.88,19.88,0,0,0-.49-3.74q4.86,1.78,4.86,6.25a12.89,12.89,0,0,1-1.79,6.61l1.93,2,1.63,1.68.89.91A2,2,0,0,1,1173.37,234.31ZM1161,228.4,1149.78,217q-5.49,2.61-5.49,7.54a6.11,6.11,0,0,0,2.34,4.72,9.35,9.35,0,0,0,6.34,2C1156.5,231.27,1159.17,230.32,1161,228.4Zm-9.51-17.31a17.57,17.57,0,0,0,4.54-3,5.09,5.09,0,0,0,0-7.24,5.33,5.33,0,0,0-3.89-1.49,4.79,4.79,0,0,0-3.58,1.37,4.88,4.88,0,0,0-1.33,3.56,6,6,0,0,0,1,3.19A17.42,17.42,0,0,0,1151.49,211.09Z"/><path d="M1222,210.46a2.85,2.85,0,0,1-.94,2.24,4.1,4.1,0,0,1-2.52,1q-1.69-3.27-6.68-3.27a8.62,8.62,0,0,0-6.37,2.57c-1.7,1.73-2.55,4.22-2.55,7.5s.84,5.71,2.52,7.41a8.58,8.58,0,0,0,6.34,2.54c3.73,0,6.25-1.09,7.59-3.27a3.34,3.34,0,0,1,2.25.94,2.69,2.69,0,0,1,.91,2c0,1.62-1,3-3,4.25a15.14,15.14,0,0,1-8,1.82,17.74,17.74,0,0,1-7.37-1.52,13.06,13.06,0,0,1-5.68-5.19,16.54,16.54,0,0,1-2.3-8.95,18.54,18.54,0,0,1,1.33-7.28,12.52,12.52,0,0,1,3.58-5,15.77,15.77,0,0,1,4.86-2.7,17.07,17.07,0,0,1,5.52-.88q5,0,7.71,1.76T1222,210.46Z"/><path d="M1254.36,208.79q4.46,4.1,4.46,11.62T1254.39,232a16.18,16.18,0,0,1-21.46,0q-4.46-4.06-4.46-11.59t4.46-11.62a16.05,16.05,0,0,1,21.43,0Zm-19.21,11.56q0,4.92,2.37,7.53a8.5,8.5,0,0,0,12.26,0q2.35-2.61,2.36-7.53t-2.33-7.47a8.57,8.57,0,0,0-12.32,0Q1235.15,215.49,1235.15,220.35Z"/><path class="c" d="M1245.73,497.94a11,11,0,0,0-7.31-2.78q-3.75,4.59-11.72,4.59-5.91,0-9.36-3.57T1213.9,486q0-6.64,3.44-10.21t9.36-3.56q7.13,0,10.39,5a11.75,11.75,0,0,0,8-2.6,8.18,8.18,0,0,0,3-6.46q0-6.17-5.86-10.69t-16.73-4.53a33,33,0,0,0-22.83,8.46q-9.42,8.45-9.42,24.64,0,15.94,9.67,24.1a34.8,34.8,0,0,0,23.19,8.15q9.78,0,16.18-4.05t6.41-10A8.18,8.18,0,0,0,1245.73,497.94Z"/><path class="c" d="M859.65,492.44a16,16,0,0,0-8.82-3.56q-5,8.44-16.07,8.45a16.67,16.67,0,0,1-12.92-5.43q-5-5.44-5-15.1t4.77-15.28q4.77-5.62,13.1-5.62,12.33,0,15.58,8.46a15.8,15.8,0,0,0,8.88-3.14,9.25,9.25,0,0,0,3.57-7.73q0-7.86-7.8-13.29t-20.83-5.44a44.83,44.83,0,0,0-15.46,2.6A39.14,39.14,0,0,0,806,445a34.36,34.36,0,0,0-8.87,13.17,49.78,49.78,0,0,0-3.26,18.66,47.84,47.84,0,0,0,3.38,18.6,33.44,33.44,0,0,0,9.18,13,40.11,40.11,0,0,0,13,7.37,47,47,0,0,0,15.4,2.48q12.45,0,20.54-5.13t8.09-12.75A9.79,9.79,0,0,0,859.65,492.44Z"/><path class="c" d="M969,453.24q-7.37,0-11.84,4a22.68,22.68,0,0,0-6.4,9.42v-2.9q0-5.19-2.42-7.43c-1.61-1.49-4.26-2.23-8-2.23h-.24q-5.43,0-7.85,2.23t-2.42,7.43V507.6q0,5.19,2.3,7.37t8,2.17h.48c3.63,0,6.22-.74,7.79-2.23s2.36-3.93,2.36-7.31V486.82c0-4.26.83-7.61,2.48-10a7.61,7.61,0,0,1,6.58-3.63q7.85,0,7.85,9.06v25.25q0,9.66,9.78,9.66h1q5.55,0,7.91-2.23t2.36-7.43V477q0-12.19-5.62-18A18.79,18.79,0,0,0,969,453.24Z"/><path class="c" d="M1022.37,448c5.1-9.18,16.51-7.06,19.26-1.87a7.38,7.38,0,0,0,2.48,4.6l.08.06c2.29,2.18,6.08,3.18,10.61,1.57l.08,0a8.94,8.94,0,0,0,2.81-1.59q2.64-2.23,2.64-6.59a10.45,10.45,0,0,0-.64-3.77c-3.3-12.48-32.59-27.29-52.46-5.39a25.61,25.61,0,0,0-6.77,17.8v5.44h-3.38q-7.61,0-7.61,9.06a8.43,8.43,0,0,0,2,6,7.4,7.4,0,0,0,5.62,2.11h3.5v32.37q0,5.19,2.24,7.37t7.91,2.17h.48q5.56,0,7.86-2.17t2.29-7.37V475.35h8.69c3.22,0,5.54-.55,7-1.63s2.11-3.24,2.11-6.46-.72-5.54-2.17-6.95-3.75-2.11-6.89-2.11h-9v-1C1021,454.25,1021.34,449.84,1022.37,448Z"/><path class="c" d="M916.65,461a33,33,0,0,0-21.32-7.74,32.4,32.4,0,0,0-11.24,2A36.3,36.3,0,0,0,874,461a26,26,0,0,0-7.55,10.26,36.31,36.31,0,0,0-2.84,14.62,35.45,35.45,0,0,0,2.84,14.49A25.73,25.73,0,0,0,874,510.44,34.72,34.72,0,0,0,884.09,516a34.27,34.27,0,0,0,32.56-5.55,26,26,0,0,0,7.48-10.09,38.72,38.72,0,0,0,0-29.11A27.48,27.48,0,0,0,916.65,461Zm-13.53,35.27a10.63,10.63,0,0,1-15.83-.07q-3-3.56-2.95-10.68t2.95-10.63a10.68,10.68,0,0,1,15.83,0q3,3.5,3,10.63T903.12,496.25Z"/><path class="c" d="M1052,458.2h-.25q-5.43,0-7.79,2.24t-2.35,7.42V507.6q0,5.07,2.29,7.31t7.85,2.23h.49q5.43,0,7.79-2.23t2.35-7.31V467.86q0-5.19-2.41-7.42T1052,458.2Z"/><path class="c" d="M1123.26,494.92V480.18q0-12.81-6.52-19.81t-21.38-7q-11.35,0-18.06,3.8t-6.7,9.48q0,6.77,5.67,9.18,6-4.35,15.46-4.35,12.57,0,12.57,7.61v1.45a72.15,72.15,0,0,0-13.17-1.81q-10.26,0-17.21,5.26t-7,14.55q0,9.06,6,14.13a22.29,22.29,0,0,0,14.92,5.08q6.77,0,11-2.9a16,16,0,0,0,5.8-6.41l.24.13q2.65,9.06,11.35,9.06,5.57,0,8.46-2.84a11.61,11.61,0,0,0,3.5-6.47Q1123.26,506.28,1123.26,494.92Zm-19-1.94a9.69,9.69,0,0,1-2.78,6.83,9.35,9.35,0,0,1-7.13,3,10.05,10.05,0,0,1-5.92-1.63,5.25,5.25,0,0,1-2.29-4.53,5.36,5.36,0,0,1,2.6-4.89,11.89,11.89,0,0,1,6.46-1.63,20.17,20.17,0,0,1,9.06,1.81Z"/><path class="c" d="M1170.14,453.24q-7.37,0-11.84,4a22.68,22.68,0,0,0-6.4,9.42v-2.9q0-5.19-2.41-7.43c-1.62-1.49-4.27-2.23-8-2.23h-.24q-5.43,0-7.85,2.23t-2.42,7.43V507.6q0,5.19,2.3,7.37t8,2.17h.49q5.43,0,7.79-2.23t2.35-7.31V486.82c0-4.26.83-7.61,2.48-10a7.61,7.61,0,0,1,6.58-3.63q7.85,0,7.85,9.06v25.25q0,9.66,9.79,9.66h1c3.71,0,6.34-.74,7.91-2.23s2.36-4,2.36-7.43V477q0-12.19-5.62-18A18.79,18.79,0,0,0,1170.14,453.24Z"/><path class="c" d="M1299.38,496.12q-5.19,5-14.49,5a22.91,22.91,0,0,1-12-2.9q-4.83-2.9-4.83-7.85,5.91,2.78,15.58,2.77t16-4.65q6.35-4.65,6.34-13.7a19.75,19.75,0,0,0-6.76-15.22q-6.77-6.16-18.48-6.16-13.89,0-22.77,8.69t-8.88,24.4q0,15.59,8.94,23.62t23.8,8a40.61,40.61,0,0,0,10.57-1.39,22.44,22.44,0,0,0,8.81-4.53,9.42,9.42,0,0,0,3.69-7.37,9.73,9.73,0,0,0-1.63-5.31A8.1,8.1,0,0,0,1299.38,496.12Zm-26.45-23.79a10.13,10.13,0,0,1,6.88-2.66,11.31,11.31,0,0,1,6.59,1.81A5.32,5.32,0,0,1,1289,476q0,5.93-7.49,5.92-8.68,0-12-2.41A10.19,10.19,0,0,1,1272.93,472.33Z"/><path class="c" d="M844.11,541.43h.43q3,0,3,2.55v1.94a9.66,9.66,0,0,1,3.62-3.52,10.42,10.42,0,0,1,5.43-1.46,11.81,11.81,0,0,1,9.19,3.86q3.5,3.86,3.49,11.74,0,7.71-3.82,11.65a12.88,12.88,0,0,1-9.65,3.95,13.84,13.84,0,0,1-8.26-2.43V582a3.09,3.09,0,0,1-.72,2.28,3.39,3.39,0,0,1-2.37.7h-.37c-2.06,0-3.09-1-3.09-3V544.4a3,3,0,0,1,.73-2.27A3.3,3.3,0,0,1,844.11,541.43Zm3.53,16.75c0,2.31.06,4.55.18,6.74a7,7,0,0,0,2.58,1.18,14.15,14.15,0,0,0,4.22.64,7.39,7.39,0,0,0,5.79-2.49q2.22-2.49,2.22-7.71T860.47,549a7.25,7.25,0,0,0-5.61-2.36,5.8,5.8,0,0,0-5.53,3.21A18,18,0,0,0,847.64,558.18Z"/><path class="c" d="M899,543.83a9.24,9.24,0,0,1,3.22,7.19,7.47,7.47,0,0,1-3.22,6.55,14.3,14.3,0,0,1-8.37,2.25,23.73,23.73,0,0,1-9-1.46,7.74,7.74,0,0,0,2.89,6.28,10.49,10.49,0,0,0,6.95,2.4c4.28,0,7.1-1.23,8.43-3.7a2.73,2.73,0,0,1,2.31,2.85q0,2.37-3.1,4.25a15.27,15.27,0,0,1-8,1.88A16.26,16.26,0,0,1,880,568.41q-4.43-3.92-4.43-11.63T879.89,545a14.66,14.66,0,0,1,10.41-4.1C894,540.94,896.9,541.9,899,543.83ZM881.87,554.3a23,23,0,0,0,7.58,1.21c4.78,0,7.16-1.5,7.16-4.49a4.15,4.15,0,0,0-1.88-3.46,7.82,7.82,0,0,0-4.79-1.4,7.46,7.46,0,0,0-5.68,2.43A8.59,8.59,0,0,0,881.87,554.3Z"/><path class="c" d="M915.67,533.84h.48q3,0,3,3V542h7.16c2.07,0,3.1.91,3.1,2.73s-1.08,2.67-3.22,2.67h-7v13.35c0,2.27.43,3.87,1.31,4.82a5,5,0,0,0,3.91,1.43,6,6,0,0,0,4.13-1.21,2.83,2.83,0,0,1,1.45,2.73c0,1.09-.7,2-2.09,2.67a11.84,11.84,0,0,1-5.25,1,10.06,10.06,0,0,1-7.31-2.61q-2.7-2.61-2.7-8.31v-13.9H910c-2,0-3-.89-3-2.67s1-2.73,3-2.73h2.55v-5.1Q912.64,533.84,915.67,533.84Z"/><path class="c" d="M956.58,545.8c0,1.25-.83,2.21-2.49,2.85a5.51,5.51,0,0,0-2.55-1.7,12,12,0,0,0-4.31-.73,8.52,8.52,0,0,0-4.13.88,2.77,2.77,0,0,0-1.58,2.52,2.86,2.86,0,0,0,1.34,2.49,18,18,0,0,0,5.28,1.88q5.4,1.28,7.8,3.4a7.18,7.18,0,0,1,2.4,5.65,7.76,7.76,0,0,1-3.68,6.7,15.85,15.85,0,0,1-9.19,2.52,20.77,20.77,0,0,1-8.22-1.36c-2.09-.92-3.13-2.16-3.13-3.74a3.91,3.91,0,0,1,2.06-3.58,8.33,8.33,0,0,0,3.53,2.55,15,15,0,0,0,6.06,1.09,7.86,7.86,0,0,0,4.43-1.06,3.15,3.15,0,0,0,1.58-2.7,3,3,0,0,0-1.61-2.67,24,24,0,0,0-6-2.06q-5-1.22-7.14-3.19a6.65,6.65,0,0,1-2.15-5.13,8.09,8.09,0,0,1,3.61-7,14.31,14.31,0,0,1,8.47-2.55,15.26,15.26,0,0,1,7.07,1.37Q956.58,543.62,956.58,545.8Z"/><path class="c" d="M973.45,532.81a3.66,3.66,0,0,1-1.16,2.82,4,4,0,0,1-2.85,1.07,3.94,3.94,0,0,1-2.82-1.07,3.7,3.7,0,0,1-1.12-2.82,3.85,3.85,0,0,1,3.94-3.95,3.9,3.9,0,0,1,2.85,1.13A3.78,3.78,0,0,1,973.45,532.81Zm-4.13,8.62h.3q3.11,0,3.1,3v24.4a3.15,3.15,0,0,1-.73,2.31,3.26,3.26,0,0,1-2.37.73h-.3a2.6,2.6,0,0,1-3.09-3V544.4Q966.23,541.43,969.32,541.43Z"/><path class="c" d="M988.56,533.84H989q3,0,3,3V542h7.16c2.07,0,3.1.91,3.1,2.73s-1.08,2.67-3.22,2.67h-7v13.35c0,2.27.43,3.87,1.31,4.82A5,5,0,0,0,997.3,567a6,6,0,0,0,4.13-1.21,2.83,2.83,0,0,1,1.45,2.73c0,1.09-.7,2-2.09,2.67a11.84,11.84,0,0,1-5.25,1,10.06,10.06,0,0,1-7.31-2.61q-2.7-2.61-2.7-8.31v-13.9h-2.61c-2,0-3-.89-3-2.67s1-2.73,3-2.73h2.55v-5.1Q985.53,533.84,988.56,533.84Z"/><path class="c" d="M1014.66,533.84h.48c2,0,3,1,3,3V542h7.16q3.09,0,3.09,2.73t-3.21,2.67h-7v13.35c0,2.27.43,3.87,1.3,4.82a5,5,0,0,0,3.92,1.43,6,6,0,0,0,4.12-1.21,2.83,2.83,0,0,1,1.46,2.73c0,1.09-.7,2-2.09,2.67a11.84,11.84,0,0,1-5.25,1,10.09,10.09,0,0,1-7.32-2.61q-2.7-2.61-2.7-8.31v-13.9H1009q-3,0-3-2.67t3-2.73h2.55v-5.1Q1011.62,533.84,1014.66,533.84Z"/><path class="c" d="M1042.94,532.81a3.65,3.65,0,0,1-1.15,2.82,4.06,4.06,0,0,1-2.86,1.07,3.94,3.94,0,0,1-2.82-1.07,3.7,3.7,0,0,1-1.12-2.82,3.85,3.85,0,0,1,3.94-3.95,3.94,3.94,0,0,1,2.86,1.13A3.77,3.77,0,0,1,1042.94,532.81Zm-4.13,8.62h.31q3.09,0,3.09,3v24.4a3.15,3.15,0,0,1-.73,2.31,3.25,3.25,0,0,1-2.36.73h-.31a2.61,2.61,0,0,1-3.09-3V544.4Q1035.72,541.43,1038.81,541.43Z"/><path class="c" d="M1055.2,541.43h.36a3.31,3.31,0,0,1,2.37.7,3.1,3.1,0,0,1,.73,2.33V547a11.6,11.6,0,0,1,3.55-4.25,9.33,9.33,0,0,1,5.8-1.82,10.74,10.74,0,0,1,7.73,2.92q3.08,2.91,3.07,9.22V568.8a3.14,3.14,0,0,1-.73,2.34,3.49,3.49,0,0,1-2.43.7h-.48c-2,0-3-1-3-3V554c0-2.59-.54-4.43-1.64-5.52a6.33,6.33,0,0,0-4.67-1.64,6.19,6.19,0,0,0-5.22,2.61,11.36,11.36,0,0,0-1.94,6.92V568.8a3.14,3.14,0,0,1-.73,2.34,3.46,3.46,0,0,1-2.43.7h-.36a3.37,3.37,0,0,1-2.4-.7,3.27,3.27,0,0,1-.7-2.34V544.46a3.14,3.14,0,0,1,.73-2.33A3.34,3.34,0,0,1,1055.2,541.43Z"/><path class="c" d="M1114.07,542.28a3.72,3.72,0,0,1-1.34,2.88,8.25,8.25,0,0,1-3,1.73,8.38,8.38,0,0,1,1.4,5.28c0,3.52-1.19,6.18-3.55,8a14.07,14.07,0,0,1-8.77,2.7c-.21,0-.6,0-1.19-.06s-1-.06-1.24-.06a3.57,3.57,0,0,0-2.16.64,1.79,1.79,0,0,0-.88,1.42c0,1.3,1.1,2,3.28,2h4.68q12.8,0,12.86,8a8.49,8.49,0,0,1-4.13,7.34q-4.12,2.79-10.74,2.92h-1.52a18.5,18.5,0,0,1-9-2q-3.71-2-3.7-5a3.68,3.68,0,0,1,1.09-2.77,4.42,4.42,0,0,1,3-1.12,6.91,6.91,0,0,0,1.63,2.49q2.49,3.09,8,3.09h.54a14.58,14.58,0,0,0,6.44-1.18c1.57-.79,2.36-1.77,2.36-2.94a2.73,2.73,0,0,0-2-2.67,17.21,17.21,0,0,0-6-.79c-4.69-.08-8-.48-10.07-1.18a4.17,4.17,0,0,1-3-4.28q0-3.52,4.73-5.28c-3.55-2-5.34-5.08-5.34-9.41a9.74,9.74,0,0,1,3.65-8.1,14,14,0,0,1,9-2.89,11.25,11.25,0,0,1,8,3.1c1.46-1.09,2.22-3,2.31-5.65a5.44,5.44,0,0,1,3.43,1.07A3.38,3.38,0,0,1,1114.07,542.28Zm-21.67,9.77a5.83,5.83,0,0,0,1.82,4.7,6.78,6.78,0,0,0,4.56,1.55,6.64,6.64,0,0,0,4.52-1.55,5.88,5.88,0,0,0,1.79-4.7,6,6,0,0,0-1.79-4.76,6.64,6.64,0,0,0-4.52-1.55,6.78,6.78,0,0,0-4.56,1.55A5.92,5.92,0,0,0,1092.4,552.05Z"/><path class="c" d="M1173.37,570.56c0,.85-.71,1.28-2.13,1.28h-1.39a2.08,2.08,0,0,1-.64-.1l-.61-.15a2.09,2.09,0,0,1-.64-.3l-.57-.36a4.59,4.59,0,0,1-.67-.52c-.3-.26-.51-.44-.61-.54l-.63-.66a2.93,2.93,0,0,0-.73-.59q-4.07,4-11.6,4-7.1,0-11.16-3.34a10.25,10.25,0,0,1-4.07-8.2q0-7.27,8.38-11.41a25.37,25.37,0,0,1-3.92-4.64,8.8,8.8,0,0,1-1.24-4.7,9.69,9.69,0,0,1,3-7.17,10.9,10.9,0,0,1,7.95-3,11.12,11.12,0,0,1,8.14,3,9.77,9.77,0,0,1,3.09,7.22q0,6.63-8.56,10.28l9.79,10a11.06,11.06,0,0,0,1.14-5.3,19.8,19.8,0,0,0-.49-3.73q4.86,1.77,4.86,6.24a12.93,12.93,0,0,1-1.79,6.62c.6.61,1.24,1.26,1.93,2s1.24,1.26,1.63,1.67l.89.91A2.06,2.06,0,0,1,1173.37,570.56ZM1161,564.65l-11.22-11.42q-5.49,2.63-5.49,7.54a6.11,6.11,0,0,0,2.34,4.72,9.31,9.31,0,0,0,6.34,2C1156.5,567.53,1159.17,566.57,1161,564.65Zm-9.51-17.31a17.32,17.32,0,0,0,4.54-3,5.09,5.09,0,0,0,0-7.24,5.33,5.33,0,0,0-3.89-1.49,4.79,4.79,0,0,0-3.58,1.37,4.88,4.88,0,0,0-1.33,3.56,6,6,0,0,0,1,3.2A17.42,17.42,0,0,0,1151.49,547.34Z"/><path class="c" d="M1222,546.71A2.85,2.85,0,0,1,1221,549a4.1,4.1,0,0,1-2.52,1q-1.69-3.28-6.68-3.28a8.59,8.59,0,0,0-6.37,2.58q-2.55,2.58-2.55,7.49t2.52,7.41a8.55,8.55,0,0,0,6.34,2.55c3.73,0,6.25-1.1,7.59-3.28a3.34,3.34,0,0,1,2.25.94,2.71,2.71,0,0,1,.91,2c0,1.62-1,3-3,4.25a15.14,15.14,0,0,1-8,1.82,17.74,17.74,0,0,1-7.37-1.52,13.1,13.1,0,0,1-5.68-5.18,16.6,16.6,0,0,1-2.3-9,18.54,18.54,0,0,1,1.33-7.28,12.59,12.59,0,0,1,3.58-5,15.77,15.77,0,0,1,4.86-2.7,17.35,17.35,0,0,1,5.52-.88q5,0,7.71,1.76C1221.07,543.82,1222,545.17,1222,546.71Z"/><path class="c" d="M1254.36,545q4.46,4.1,4.46,11.62t-4.43,11.59a16.18,16.18,0,0,1-21.46,0q-4.46-4.05-4.46-11.59t4.46-11.62a16.05,16.05,0,0,1,21.43,0Zm-19.21,11.56q0,4.92,2.37,7.53a8.5,8.5,0,0,0,12.26,0q2.35-2.61,2.36-7.53t-2.33-7.46a8.57,8.57,0,0,0-12.32,0Q1235.15,551.75,1235.15,556.6Z"/></svg>